<svg xmlns="http://www.w3.org/2000/svg" width="16" height="16" viewBox="0 0 16 16" version="1.1"><path d="M 7.333 1.667 C 7.700 2.033, 8.300 2.033, 8.667 1.667 C 9.033 1.300, 8.733 1, 8 1 C 7.267 1, 6.967 1.300, 7.333 1.667 M 1 5 C 1 5.550, 1.450 6, 2 6 C 2.550 6, 3 5.550, 3 5 C 3 4.450, 2.550 4, 2 4 C 1.450 4, 1 4.450, 1 5 M 13 5 C 13 5.550, 13.450 6, 14 6 C 14.550 6, 15 5.550, 15 5 C 15 4.450, 14.550 4, 14 4 C 13.450 4, 13 4.450, 13 5" stroke="none" fill="#7db6c0" fill-rule="evenodd"/><path d="" stroke="none" fill="#aee2eb" fill-rule="evenodd"/><path d="" stroke="none" fill="#f1e29a" fill-rule="evenodd"/><path d="M 2 13.500 C 2 13.775, 2.225 14, 2.500 14 C 2.775 14, 3 13.775, 3 13.500 C 3 13.225, 2.775 13, 2.500 13 C 2.225 13, 2 13.225, 2 13.500 M 13 13.500 C 13 13.775, 13.225 14, 13.500 14 C 13.775 14, 14 13.775, 14 13.500 C 14 13.225, 13.775 13, 13.500 13 C 13.225 13, 13 13.225, 13 13.500" stroke="none" fill="#efdb8e" fill-rule="evenodd"/><path d="M 6.543 13.931 C 5.803 15.128, 7.684 16.313, 9.016 15.490 C 10.135 14.799, 9.400 13, 8 13 C 7.515 13, 6.859 13.419, 6.543 13.931" stroke="none" fill="#eb0101" fill-rule="evenodd"/><path d="M 5.389 6.430 C 4.393 9.025, 5.788 11.169, 8.246 10.820 C 11.450 10.365, 11.450 5.635, 8.246 5.180 C 6.893 4.988, 5.750 5.488, 5.389 6.430 M 6.446 7.087 C 5.416 8.755, 7.733 10.667, 9.113 9.287 C 10.267 8.133, 9.545 6, 8 6 C 7.515 6, 6.816 6.489, 6.446 7.087 M 7 8 C 7 8.550, 7.450 9, 8 9 C 8.550 9, 9 8.550, 9 8 C 9 7.450, 8.550 7, 8 7 C 7.450 7, 7 7.450, 7 8" stroke="none" fill="#4b5354" fill-rule="evenodd"/><path d="M 6.543 0.931 C 5.803 2.128, 7.684 3.313, 9.016 2.490 C 10.135 1.799, 9.400 0, 8 0 C 7.515 0, 6.859 0.419, 6.543 0.931 M 7.333 1.667 C 7.700 2.033, 8.300 2.033, 8.667 1.667 C 9.033 1.300, 8.733 1, 8 1 C 7.267 1, 6.967 1.300, 7.333 1.667 M 0.446 4.087 C -0.584 5.755, 1.733 7.667, 3.113 6.287 C 4.267 5.133, 3.545 3, 2 3 C 1.515 3, 0.816 3.489, 0.446 4.087 M 12.446 4.087 C 11.416 5.755, 13.733 7.667, 15.113 6.287 C 16.267 5.133, 15.545 3, 14 3 C 13.515 3, 12.816 3.489, 12.446 4.087 M 1 5 C 1 5.550, 1.450 6, 2 6 C 2.550 6, 3 5.550, 3 5 C 3 4.450, 2.550 4, 2 4 C 1.450 4, 1 4.450, 1 5 M 13 5 C 13 5.550, 13.450 6, 14 6 C 14.550 6, 15 5.550, 15 5 C 15 4.450, 14.550 4, 14 4 C 13.450 4, 13 4.450, 13 5 M 1.543 8.931 C 1.226 9.443, 1.447 10.158, 2.032 10.520 C 2.781 10.983, 2.772 11.570, 2 12.500 C 1.241 13.414, 1.226 14.022, 1.951 14.470 C 2.528 14.826, 3.034 14.979, 3.077 14.809 C 3.712 12.243, 3.656 10.906, 2.895 10.435 C 2.385 10.120, 2.226 9.443, 2.543 8.931 C 2.859 8.419, 2.893 8, 2.618 8 C 2.343 8, 1.859 8.419, 1.543 8.931 M 13.094 8.676 C 13.172 9.129, 13.149 9.725, 13.042 10 C 11.859 13.033, 13.017 16.399, 14.447 14.085 C 14.769 13.564, 14.553 12.842, 13.968 12.480 C 13.219 12.017, 13.228 11.430, 14 10.500 C 14.778 9.562, 14.785 8.985, 14.024 8.515 C 13.433 8.150, 13.015 8.222, 13.094 8.676 M 2 13.500 C 2 13.775, 2.225 14, 2.500 14 C 2.775 14, 3 13.775, 3 13.500 C 3 13.225, 2.775 13, 2.500 13 C 2.225 13, 2 13.225, 2 13.500 M 13 13.500 C 13 13.775, 13.225 14, 13.500 14 C 13.775 14, 14 13.775, 14 13.500 C 14 13.225, 13.775 13, 13.500 13 C 13.225 13, 13 13.225, 13 13.500" stroke="none" fill="#d4f6e9" fill-rule="evenodd"/><path d="M 5.040 5.452 C 2.383 8.653, 6.285 13.570, 9.750 11.388 C 10.713 10.782, 11.650 9.525, 11.833 8.595 C 12.578 4.807, 7.518 2.466, 5.040 5.452 M 5.389 6.430 C 4.393 9.025, 5.788 11.169, 8.246 10.820 C 11.450 10.365, 11.450 5.635, 8.246 5.180 C 6.893 4.988, 5.750 5.488, 5.389 6.430 M 6.446 7.087 C 5.416 8.755, 7.733 10.667, 9.113 9.287 C 10.267 8.133, 9.545 6, 8 6 C 7.515 6, 6.816 6.489, 6.446 7.087 M 7 8 C 7 8.550, 7.450 9, 8 9 C 8.550 9, 9 8.550, 9 8 C 9 7.450, 8.550 7, 8 7 C 7.450 7, 7 7.450, 7 8" stroke="none" fill="#5c5e5e" fill-rule="evenodd"/></svg>