<svg xmlns="http://www.w3.org/2000/svg" width="16" height="16" viewBox="0 0 16 16" version="1.1"><path d="M 2.011 3.487 C 1.332 4.305, 1.035 6.005, 1.352 7.265 C 1.668 8.525, 3.325 10.893, 5.035 12.528 L 8.143 15.500 11.572 11.765 C 13.457 9.710, 15 7.178, 15 6.137 C 15 5.096, 14.288 3.654, 13.419 2.933 C 12.134 1.866, 11.456 1.859, 9.801 2.892 C 8.340 3.805, 7.458 3.858, 6.682 3.082 C 6.087 2.487, 5.070 2, 4.422 2 C 3.775 2, 2.690 2.669, 2.011 3.487 M 12.500 5 C 12.840 5.550, 13.316 6, 13.559 6 C 13.802 6, 14 5.550, 14 5 C 14 4.450, 13.523 4, 12.941 4 C 12.359 4, 12.160 4.450, 12.500 5 M 11.226 6.579 C 12.176 7.570, 13.168 8.166, 13.431 7.903 C 13.694 7.640, 12.917 6.829, 11.705 6.100 C 9.598 4.835, 9.577 4.857, 11.226 6.579" stroke="none" fill="#fe0000" fill-rule="evenodd"/><path d="M 12.500 5 C 12.840 5.550, 13.316 6, 13.559 6 C 13.802 6, 14 5.550, 14 5 C 14 4.450, 13.523 4, 12.941 4 C 12.359 4, 12.160 4.450, 12.500 5 M 11.226 6.579 C 12.176 7.570, 13.168 8.166, 13.431 7.903 C 13.694 7.640, 12.917 6.829, 11.705 6.100 C 9.598 4.835, 9.577 4.857, 11.226 6.579" stroke="none" fill="#fcfcfc" fill-rule="evenodd"/></svg>